<?xml version="1.0" encoding="utf-8"?>
<!-- Generator: Adobe Illustrator 25.2.0, SVG Export Plug-In . SVG Version: 6.00 Build 0)  -->
<svg version="1.1" id="Capa_1" xmlns="http://www.w3.org/2000/svg" xmlns:xlink="http://www.w3.org/1999/xlink" x="0px" y="0px"
	 viewBox="0 0 440 400" style="enable-background:new 0 0 440 400;" xml:space="preserve">
<style type="text/css">
	.st0{fill:#FFFFFF;}
	.st1{fill:#FFFFFF;stroke:#263238;stroke-linecap:round;stroke-linejoin:round;}
	.st2{fill:#C68E41;}
	.st3{fill:#9E7034;}
	.st4{fill:#E6E6E6;}
	.st5{fill:#E0A95E;}
	.st6{fill:#DEB488;}
	.st7{fill:#4D4D4D;}
	.st8{fill:#C99F71;}
	.st9{clip-path:url(#SVGID_2_);}
	.st10{fill:#49699C;}
	.st11{fill:#F5A167;}
	.st12{fill:#FEB67C;}
	.st13{fill:#754C24;}
	.st14{fill:#3B557D;}
	.st15{fill:#5D86C7;}
	.st16{fill:#D9B084;}
	.st17{fill:#A6835D;}
	.st18{fill:#FFA86B;}
	.st19{fill:#333333;}
	.st20{fill:#666666;}
</style>
<path class="st0" d="M-30-45"/>
<path class="st0" d="M-30-45"/>
<g>
	<path class="st1" d="M-30-45"/>
	<path class="st1" d="M-30-45"/>
	<path class="st1" d="M-30-45"/>
</g>
<g>
	<g>
		<rect x="193.6" y="223.3" class="st2" width="97.8" height="97.8"/>
		<g>
			<rect x="204.5" y="223.3" class="st3" width="1.3" height="97.8"/>
			<rect x="216.9" y="223.3" class="st3" width="1.3" height="97.8"/>
			<rect x="229.4" y="223.3" class="st3" width="1.3" height="97.8"/>
			<rect x="241.9" y="223.3" class="st3" width="1.3" height="97.8"/>
			<rect x="254.3" y="223.3" class="st3" width="1.3" height="97.8"/>
			<rect x="266.8" y="223.3" class="st3" width="1.3" height="97.8"/>
			<rect x="279.3" y="223.3" class="st3" width="1.3" height="97.8"/>
		</g>
		<g>
			<g>
				<polygon class="st4" points="200.1,227 195,232.1 280.8,317.9 285.9,312.8 200.1,227 				"/>
			</g>
		</g>
		<g>
			<g>
				
					<rect x="238.9" y="208" transform="matrix(0.7071 -0.7071 0.7071 0.7071 -121.4247 251.1971)" class="st5" width="7.2" height="128.4"/>
			</g>
		</g>
		<g>
			<g>
				<polygon class="st4" points="280.8,232 200,312.8 205.1,317.9 285.9,237.1 280.8,232 				"/>
			</g>
		</g>
		<g>
			<g>
				
					<rect x="179.5" y="268.6" transform="matrix(0.7071 -0.7071 0.7071 0.7071 -121.4242 251.1896)" class="st5" width="126.1" height="7.2"/>
			</g>
		</g>
		<path class="st5" d="M282.7,232v80.3h-80.3V232H282.7L282.7,232z M291.4,223.3h-97.8v97.8h97.8V223.3L291.4,223.3z"/>
	</g>
	<g>
		<rect x="95.9" y="223.6" class="st2" width="97.8" height="97.8"/>
		<g>
			<rect x="95.9" y="234.4" class="st3" width="97.8" height="1.3"/>
			<rect x="95.9" y="246.9" class="st3" width="97.8" height="1.3"/>
			<rect x="95.9" y="259.3" class="st3" width="97.8" height="1.3"/>
			<rect x="95.9" y="271.8" class="st3" width="97.8" height="1.3"/>
			<rect x="95.9" y="284.3" class="st3" width="97.8" height="1.3"/>
			<rect x="95.9" y="296.7" class="st3" width="97.8" height="1.3"/>
			<rect x="95.9" y="309.2" class="st3" width="97.8" height="1.3"/>
		</g>
		<g>
			<g>
				<polygon class="st4" points="189.9,230 184.8,224.9 99,310.8 104.1,315.9 189.9,230 				"/>
			</g>
		</g>
		<g>
			<g>
				
					<rect x="80.5" y="268.8" transform="matrix(0.7071 -0.7071 0.7071 0.7071 -150.2629 182.1488)" class="st5" width="128.4" height="7.2"/>
			</g>
		</g>
		<g>
			<g>
				<polygon class="st4" points="184.9,310.7 104.1,229.9 99,235.1 179.8,315.8 184.9,310.7 				"/>
			</g>
		</g>
		<g>
			<g>
				
					<rect x="141.1" y="209.4" transform="matrix(0.7071 -0.7071 0.7071 0.7071 -150.2612 182.1432)" class="st5" width="7.2" height="126.1"/>
			</g>
		</g>
		<path class="st5" d="M184.9,312.6h-80.3v-80.3h80.3V312.6L184.9,312.6z M193.6,321.3v-97.8H95.9v97.8H193.6L193.6,321.3z"/>
	</g>
	<polygon class="st4" points="193.6,321.1 95.9,321.1 193.6,223.6 	"/>
	<g>
		<rect x="345.1" y="211.2" class="st6" width="89.8" height="89.8"/>
		<g>
			<rect x="409.1" y="291.5" class="st7" width="8.6" height="1.5"/>
			<g>
				<polygon class="st7" points="410.8,281.4 409.1,284.2 410.1,284.2 410.1,290.9 411.5,290.9 411.5,284.2 412.4,284.2 				"/>
				<polygon class="st7" points="416,281.4 414.3,284.2 415.3,284.2 415.3,290.9 416.7,290.9 416.7,284.2 417.7,284.2 				"/>
			</g>
			<path class="st7" d="M405.9,286c-0.1,1.5-1.3,2.6-2.8,2.6h0h0c-1.5,0-2.7-1.2-2.8-2.6L400,281h6.2L405.9,286z"/>
			<rect x="402.7" y="288.1" class="st7" width="0.8" height="5"/>
			<path class="st7" d="M405,293.2l-1.9-0.6l-1.8,0.6c-0.2,0.1-0.4,0.3-0.4,0.6v0h4.5v0C405.4,293.5,405.2,293.3,405,293.2z"/>
			<path class="st7" d="M424.6,280.2c-2.5,0-4.6,2.1-4.6,4.6h9.2C429.1,282.3,427.1,280.2,424.6,280.2z"/>
			<g>
				<path class="st7" d="M423.3,293.1c-0.6,0-1.1-0.3-1.4-0.8l-0.4-0.6c-0.1-0.2,0-0.4,0.1-0.5c0.2-0.1,0.4,0,0.5,0.1l0.4,0.6
					c0.1,0.3,0.4,0.4,0.7,0.4c0.5,0,0.8-0.4,0.8-0.8v-7.6c0-0.2,0.2-0.4,0.4-0.4c0.2,0,0.4,0.2,0.4,0.4v7.6
					C424.9,292.4,424.2,293.1,423.3,293.1z"/>
			</g>
		</g>
		<path class="st8" d="M395.7,235.5c-2.8,2.2-5.3,2.2-6,0.1c-1-2.9-3.5,0.1-5.3-1.2v-23.2h11.3V235.5z"/>
	</g>
	<g>
		<rect x="361.9" y="153.3" class="st6" width="39.9" height="57.8"/>
		<g>
			<rect x="377.2" y="203.1" class="st7" width="7.3" height="1.3"/>
			<g>
				<polygon class="st7" points="378.6,194.4 377.2,196.8 378,196.8 378,202.5 379.2,202.5 379.2,196.8 380,196.8 				"/>
				<polygon class="st7" points="383.1,194.4 381.6,196.8 382.5,196.8 382.5,202.5 383.7,202.5 383.7,196.8 384.5,196.8 				"/>
			</g>
			<path class="st7" d="M374.4,198.4c-0.1,1.3-1.1,2.3-2.4,2.3h0h0c-1.3,0-2.3-1-2.4-2.3l-0.3-4.4h5.3L374.4,198.4z"/>
			<rect x="371.7" y="200.1" class="st7" width="0.6" height="4.3"/>
			<path class="st7" d="M373.6,204.5l-1.6-0.5l-1.6,0.5c-0.2,0.1-0.3,0.3-0.3,0.5v0h3.9v0C374,204.7,373.8,204.5,373.6,204.5z"/>
			<path class="st7" d="M390.4,193.4c-2.2,0-3.9,1.8-3.9,3.9h7.9C394.3,195.1,392.6,193.4,390.4,193.4z"/>
			<g>
				<path class="st7" d="M389.4,204.4c-0.5,0-1-0.3-1.2-0.7l-0.3-0.5c-0.1-0.2,0-0.4,0.1-0.5c0.2-0.1,0.4,0,0.5,0.1l0.3,0.5
					c0.1,0.2,0.4,0.4,0.6,0.4c0.4,0,0.7-0.3,0.7-0.7v-6.5c0-0.2,0.2-0.3,0.3-0.3c0.2,0,0.3,0.2,0.3,0.3v6.5
					C390.7,203.8,390.1,204.4,389.4,204.4z"/>
			</g>
		</g>
		<path class="st8" d="M386.7,174.1C386.7,174.2,386.7,174.2,386.7,174.1c-0.5-0.2-1.1,0.5-1.6,0.3c-0.3-0.1-0.4-0.4-0.6-0.7
			c-0.4-0.4-1.2-0.4-1.6,0.1c-0.1,0.2-0.2,0.4-0.3,0.6s-0.3,0.4-0.5,0.4c-0.3,0-0.5-0.3-0.6-0.6c-0.2-0.4-0.3-0.7-0.5-1
			c-0.2-0.3-0.6-0.5-1-0.5c-0.5,0-0.9,0.4-1.3,0.6c-0.6,0.4-1,0.2-1.5-0.1c0-0.1,0-0.3,0-0.5c0-2.1,0-4.2,0-6.3c0-2.9,0-5.8,0-8.7
			c0-1.5,0-2.9,0-4.4c0,0,9.7,0,9.7,0c0,1.7,0,3.4,0,5.1c0,3.1,0,6.2,0,9.3c0,1.3,0,2.6,0,3.9C386.7,171.9,386.6,173.7,386.7,174.1z
			"/>
	</g>
	<g>
		<defs>
			<rect id="SVGID_1_" x="-387.8" y="110.9" width="886.7" height="295.6"/>
		</defs>
		<clipPath id="SVGID_2_">
			<use xlink:href="#SVGID_1_"  style="overflow:visible;"/>
		</clipPath>
		<g class="st9">
			<path class="st10" d="M192.4,301.8c9.2,11.5,52.1,15.2,98.3,15.2l0-105.5l-61.5,13.4c-12,2.6-21.5,11.9-24.3,23.8L192.4,301.8z"
				/>
			<path class="st10" d="M389,301.8c-9.2,11.5-52.1,15.2-98.3,15.2l0-105.5l61.5,13.4c12,2.6,21.5,11.9,24.3,23.8L389,301.8z"/>
			<polygon class="st11" points="311.2,231.8 307.3,234.4 300.4,228.7 296.7,241.2 290.8,245 284.8,241.2 280.5,228.7 274.5,234.5 
				270.4,231.8 270.4,198.7 311.2,198.7 			"/>
			<path class="st12" d="M316.8,158.5v22.6c0,12.7-6.7,24.3-17.7,30.7l-0.3,0.2c-4.7,2.7-10.4,2.7-15.1,0l-0.3-0.2
				c-10.9-6.3-17.7-18-17.7-30.7v-22.6c0-3.6,0.7-7,2.1-10.1c3.9-9,12.8-15.2,23.2-15.2h0.5c10.4,0,19.3,6.3,23.2,15.2
				C316,151.5,316.8,154.9,316.8,158.5z"/>
			<path class="st12" d="M318.3,179.9l-1.8,3.5l0.2-14.6h1.2c1.2,0,2.2,1,2.2,2.2v0.1C320.1,174.1,319.5,177.1,318.3,179.9z"/>
			<path class="st12" d="M264.2,179.9l1.8,3.7l-0.3-14.8h-1.2c-1.2,0-2.2,1-2.2,2.2v0.1C262.3,174.1,263,177.1,264.2,179.9z"/>
			<path class="st13" d="M291.5,132.4H291c-14,0-25.3,11.3-25.3,25.3v0.9v15.1h0c2.1,0,3.7-1.7,3.7-3.7v-12.2c0-0.9,0.3-1.7,0.8-2.4
				l10.8-13.1c6.3,6.5,17.3,7.5,30.8,11.9c0.9,0.3,1.5,1.2,1.5,2.1v15.9c0,1.8,1.4,3.2,3.2,3.2h0V160l0,0v-2.4
				C316.8,143.7,305.4,132.4,291.5,132.4z"/>
			<g>
				<path class="st14" d="M316.8,149.2v11.7c-3.5-3.7-7-6.7-10.6-8.8c-9.7-5.8-19.6-5.7-29.8,0.4c-3.5,2.1-7,4.9-10.6,8.4v-11.7
					c0-11.7,9.5-21.2,21.2-21.2h8.7C307.3,128,316.8,137.5,316.8,149.2z"/>
				<path class="st10" d="M306.1,152.1c-9.7-5.8-19.6-5.7-29.8,0.4c0.2-13.6,6.8-24.5,14.8-24.5h0.3
					C299.3,128,305.8,138.7,306.1,152.1z"/>
				<path class="st10" d="M316.8,160.9l-0.8,1.5c-1.2,2.3-4.2,2.8-6.2,1.1c-2.5-2.1-5-3.8-7.5-5c-6.9-3.4-13.9-3.6-20.9-0.4
					c-0.6,0.3-1.1,0.5-1.7,0.8c-2.3,1.2-4.5,2.7-6.8,4.6c-2,1.7-5,1.1-6.2-1.1l-0.8-1.5c3.6-3.6,7.3-6.5,10.9-8.6
					c10-5.9,19.8-5.9,29.5-0.2C309.7,154.3,313.2,157.2,316.8,160.9z"/>
				<path class="st15" d="M306.1,152.1l-3.9,6.4c-6.9-3.4-13.9-3.6-20.9-0.4l-4.7-5.8C286.6,146.4,296.4,146.4,306.1,152.1z"/>
			</g>
			<path class="st14" d="M353.2,242.9c-4.4,5.5-7.7,18.7-8,29.5c-0.3,10.7,0,28.6,0,28.6l-14.3-0.9c0,0,2.6-27,5.8-35.4
				C339.8,256.2,353.2,242.9,353.2,242.9z"/>
			<path class="st14" d="M311,212.3v1.4c0,3.4-1.2,6.8-3.5,9.3c-1.6,1.8-3.8,3.6-6.5,4.4c-2.7,0.8-4.4,0.9-5.4,0.8
				c-1.1-0.1-2.1,0.6-2.3,1.7l-2.7,15.2h7.1c0,0,2.3-11.3,3.1-15.2c2.4,2.1,1.1,10.5,13.7,10.3c0.7-2.8,9.4-21.4,9.4-21.4L311,212.3
				z"/>
			<path class="st14" d="M228.1,242.9c4.4,5.5,7.7,18.7,8,29.5c0.3,10.7,0,28.6,0,28.6l14.3-0.9c0,0-2.6-27-5.8-35.4
				C241.4,256.2,228.1,242.9,228.1,242.9z"/>
			<path class="st14" d="M270.2,212.3v1.4c0,3.4,1.2,6.8,3.5,9.3c1.6,1.8,3.8,3.6,6.5,4.4c2.7,0.8,4.4,0.9,5.4,0.8
				c1.1-0.1,2.1,0.6,2.3,1.7l2.7,15.2h-7.1c0,0-2.3-11.3-3.1-15.2c-2.4,2.1-1.1,10.5-13.7,10.3c-0.7-2.8-9.4-21.4-9.4-21.4
				L270.2,212.3z"/>
			<rect x="283.5" y="245" class="st14" width="14.1" height="24.4"/>
			<path class="st10" d="M292.4,252.6c0,1-0.8,1.8-1.8,1.8c-1,0-1.8-0.8-1.8-1.8c0-1,0.8-1.8,1.8-1.8
				C291.5,250.7,292.4,251.5,292.4,252.6z"/>
			<rect x="223.8" y="339.8" class="st10" width="136.4" height="89.6"/>
			<path class="st10" d="M292.4,264.2c0,1-0.8,1.8-1.8,1.8c-1,0-1.8-0.8-1.8-1.8c0-1,0.8-1.8,1.8-1.8
				C291.5,262.4,292.4,263.2,292.4,264.2z"/>
			<g>
				<rect x="211" y="266.3" class="st16" width="159.4" height="130.8"/>
				<g>
					<rect x="324.6" y="380.3" class="st7" width="15.2" height="2.7"/>
					<g>
						<polygon class="st7" points="327.5,362.3 324.6,367.2 326.3,367.2 326.3,379.1 328.8,379.1 328.8,367.2 330.5,367.2 						"/>
						<polygon class="st7" points="336.8,362.3 333.8,367.2 335.5,367.2 335.5,379.1 338,379.1 338,367.2 339.8,367.2 						"/>
					</g>
					<path class="st7" d="M318.9,370.5c-0.2,2.6-2.3,4.7-4.9,4.7h0h0c-2.6,0-4.8-2-4.9-4.7l-0.5-9h11L318.9,370.5z"/>
					<rect x="313.2" y="374.1" class="st7" width="1.3" height="8.8"/>
					<path class="st7" d="M317.3,383.2l-3.3-1.1l-3.2,1.1c-0.4,0.1-0.7,0.5-0.7,1v0h8v0C318,383.7,317.7,383.3,317.3,383.2z"/>
					<path class="st7" d="M352,360.2c-4.5,0-8.1,3.6-8.1,8.1h16.3C360.2,363.9,356.5,360.2,352,360.2z"/>
					<g>
						<path class="st7" d="M349.8,383.1c-1,0-2-0.5-2.5-1.4l-0.6-1.1c-0.2-0.3-0.1-0.8,0.3-1c0.3-0.2,0.8-0.1,1,0.3l0.6,1.1
							c0.3,0.5,0.7,0.7,1.3,0.7c0.8,0,1.5-0.7,1.5-1.5v-13.5c0-0.4,0.3-0.7,0.7-0.7c0.4,0,0.7,0.3,0.7,0.7v13.5
							C352.7,381.8,351.4,383.1,349.8,383.1z"/>
					</g>
				</g>
				<path class="st17" d="M300.7,309.4c-4.9,3.9-9.4,3.9-10.7,0.2c-1.9-5.1-6.3,0.2-9.4-2.1v-41.2h20.1V309.4z"/>
			</g>
			<g>
				<path class="st11" d="M386.4,358.3h-10.5l-5.7-9.7v-57.8h0.2c10.1,0,18.2,8.4,17.8,18.5L386.4,358.3z"/>
				<path class="st11" d="M371.2,399.1L371.2,399.1c-2.5-0.1-4.2-2.3-3.6-4.6l8.3-36.2h10.5l-11.5,38.2
					C374.4,398.1,372.9,399.1,371.2,399.1z"/>
				<path class="st18" d="M376.9,301v60.3l4,3.6l4.3-57.2c0.3-3.7-1.8-7.2-5.2-8.7l-0.1,0C378.5,298.3,376.9,299.4,376.9,301z"/>
				<path class="st12" d="M374.4,345.8h-6.8l7.9,12.5l-7.6,27.8c-0.7,2.3,1.1,4.7,3.5,4.7h0.1c1.5,0,2.9-0.9,3.4-2.4l7.1-18.8
					c2.6-6.9,1-14.7-4.1-20L374.4,345.8z"/>
				<path class="st12" d="M374.4,345.8h-6.8v-8.6c0-1.9,1.5-3.4,3.4-3.4h0.1c1.9,0,3.4,1.5,3.4,3.4V345.8z"/>
			</g>
			<g>
				<path class="st11" d="M195.2,358.3h10.5l5.7-9.7v-57.8h-0.2c-10.1,0-18.2,8.4-17.8,18.5L195.2,358.3z"/>
				<path class="st11" d="M210.4,399.1L210.4,399.1c2.5-0.1,4.2-2.3,3.6-4.6l-8.3-36.2h-10.5l11.5,38.2
					C207.2,398.1,208.7,399.1,210.4,399.1z"/>
				<path class="st18" d="M204.7,301v60.3l-4,3.6l-4.3-57.2c-0.3-3.7,1.8-7.2,5.2-8.7l0.1,0C203.1,298.3,204.7,299.4,204.7,301z"/>
				<path class="st12" d="M207.2,345.8h6.8l-7.9,12.5l7.6,27.8c0.7,2.3-1.1,4.7-3.5,4.7H210c-1.5,0-2.9-0.9-3.4-2.4l-7.1-18.8
					c-2.6-6.9-1-14.7,4.1-20L207.2,345.8z"/>
				<path class="st12" d="M207.2,345.8h6.8v-8.6c0-1.9-1.5-3.4-3.4-3.4h-0.1c-1.9,0-3.4,1.5-3.4,3.4V345.8z"/>
			</g>
			<polygon class="st7" points="352,741.4 306.7,741.4 306.7,714.9 338.8,714.9 			"/>
			<rect x="306.7" y="741.4" class="st19" width="58.6" height="4"/>
			<polygon class="st10" points="360.2,728.2 300.8,728.2 290.7,429.5 352.7,429.5 			"/>
			<path class="st14" d="M313.2,728.2h-12.4l-10.1-298.7h62c-31.6,11.5-62,168-31,173.4C321.3,643,311.2,681.8,313.2,728.2z"/>
			<path class="st20" d="M350.6,721h-12.4c-7.3,0-13.2,5.9-13.2,13.2v7.2h40.3v-5.7C365.3,727.6,358.7,721,350.6,721z"/>
			<polygon class="st7" points="229.4,741.4 274.7,741.4 274.7,714.9 242.6,714.9 			"/>
			<rect x="216.1" y="741.4" class="st19" width="58.6" height="4"/>
			<polygon class="st10" points="221.2,728.2 280.6,728.2 290.7,429.5 228.7,429.5 			"/>
			<path class="st14" d="M268.2,728.2h12.4l10.1-298.7h-62c31.6,11.5,62,168,31,173.4C260.1,643,270.2,681.8,268.2,728.2z"/>
			<path class="st20" d="M230.8,721h12.4c7.3,0,13.2,5.9,13.2,13.2v7.2h-40.3v-5.7C216.1,727.6,222.7,721,230.8,721z"/>
			<rect x="223.8" y="397.1" class="st14" width="136.4" height="13.5"/>
		</g>
	</g>
	<g>
		<g>
			<polygon class="st12" points="122.5,179.1 108.7,183.9 108.7,196.6 122.5,193.8 			"/>
			<polygon class="st11" points="122.5,179.1 108.7,183.9 108.7,196.6 122.5,183.3 			"/>
			<g>
				<path class="st14" d="M97.6,164c-0.6,2.9,3.9,4.1,8.6,2.6l0.9-4l-5.5-1.2C100.3,161.1,98.1,161.7,97.6,164z"/>
				<path class="st12" d="M127.1,170.9l-0.8,3.9c-0.6,2.7-1.8,5.1-3.5,7.1c-1.6,1.9-3.7,3.4-6.1,4.4c0,0-4.1,1.2-5.5,1.4
					c-4.7,0.9-5.5-1.3-6-2.7c-1.3-3.6-2.1-7.1-1.3-10.8l1.7-8c1.2-5.8,6.9-9.5,12.7-8.2l0.6,0.1c1.8,0.4,3.3,1.2,4.6,2.3
					C126.5,162.9,128,166.9,127.1,170.9z"/>
				<path class="st13" d="M124.6,159.9c2.6,0.6,4.2,3.1,3.7,5.7l-2,9.1c-0.6,2.7-1.8,5.1-3.5,7.1l0,0c-0.7-0.2-1.2-0.9-1.1-1.6
					l1.3-5.9l-3.2-0.7l3-14.1L124.6,159.9z"/>
				<path class="st14" d="M128,171.8l-1.8,3l-7.1-5l-5.7-4.1c-3.6-2.6-5.7-3.2-6.9-2.4l2.2-3.8c2.5-4.2,8.6-5.3,13-3.4
					c0.1,0,0.2,0.1,0.3,0.1c0.7,0.4,2.2,1.3,2.2,1.3C128.9,160.2,130.7,167.3,128,171.8z"/>
				<path class="st12" d="M122.3,178.3l-0.2,0c-0.4-0.1-0.6-0.4-0.5-0.8l0.9-4c0.1-0.7,0.8-1.1,1.5-1l0.1,0c0.6,0.1,1.1,0.8,0.9,1.4
					l0,0.2c-0.1,0.4-0.2,0.7-0.4,1.1l-1.1,2.4C123.3,177.9,122.8,178.4,122.3,178.3z"/>
				<path class="st15" d="M121.3,171.3l-9.2-1.9c-6.2-1.3-4.2-6.7-10.8-8.1l7.6,1.6c0.8,0.2,1.6,0.5,2.3,1L121.3,171.3z"/>
				<path class="st15" d="M122.1,156.2c1.3,2.3,0.6,6.6-2.9,13.6l-5.7-4.1c-3.6-2.6-5.7-3.2-6.9-2.4l2.2-3.8c2.5-4.2,8.6-5.3,13-3.4
					C121.8,156.1,121.9,156.1,122.1,156.2z"/>
			</g>
		</g>
		<path class="st10" d="M120.2,224.1l-21.7,34.9l-23.9-9.9l1.2-3.7l8.6-26.7c3.1-9.5,10.4-17.1,19.9-20.4l1.4-0.5l1.6-2.4l15.2-3.2
			l1.5,7.8l0.6,2.9C125.9,210.1,124.4,217.8,120.2,224.1z"/>
		<g>
			<path class="st7" d="M77.5,370.7h-5.7c-4.9,0-8.9,4-8.9,8.9v0.1h35.5v-6.4L77.5,370.7z"/>
			<path class="st20" d="M76.7,370.7h-4.9c-4.9,0-8.9,4-8.9,8.9v0.1H71v-3.2C71,373.3,73.5,370.7,76.7,370.7z"/>
			<rect x="87" y="379.7" class="st19" width="11.3" height="1.3"/>
			<rect x="62.9" y="379.7" class="st19" width="19.4" height="1.3"/>
		</g>
		<path class="st10" d="M102,376.9l-18.7-3.2l-6.5-1.1L59.2,320c-0.5-1.5-0.6-3.1-0.2-4.6l10.7-45.4l4.9-21l23.9,9.9l0.8,10.3
			c0.5,6.4-1.4,12.8-5.3,17.9l-0.1,0.1c-2.1,2.8-3.6,5.9-4.5,9.3l-5.6,21.8L102,376.9z"/>
		<path class="st14" d="M83.2,373.7c1.1-9.1,2.3-25.7-0.6-38.3C78.8,319,69.1,319,69.8,317.2c0.7-1.8,6.8-0.9,9.2-2
			c2.4-1.1,4.5-19.9,3.3-28.8c-1-7.4-5-11.8-12.7-16.3l4.9-21l23.9,9.9l0.8,10.3c0.5,6.4-1.4,12.8-5.3,17.9l-0.1,0.1
			c-2.1,2.8-3.6,5.9-4.5,9.3l-5.6,21.8l18.3,58.6L83.2,373.7z"/>
		<path class="st14" d="M120.2,224.1l-21.7,34.9l-23.9-9.9l1.2-3.7c10.6-7.5,31.5-22.3,32.9-24.5c1.5-2.4,10.8-14.6,15.3-21l0.6,2.9
			C125.9,210.1,124.4,217.8,120.2,224.1z"/>
		<g>
			
				<rect x="16.1" y="180" transform="matrix(0.2832 -0.9591 0.9591 0.2832 -171.5818 201.2762)" class="st6" width="65.4" height="70.9"/>
			<g>
				
					<rect x="19.1" y="233" transform="matrix(0.2832 -0.9591 0.9591 0.2832 -212.2674 187.9408)" class="st7" width="1.1" height="6"/>
				<g>
					<polygon class="st7" points="20,228.1 18.3,229.7 19,229.9 17.7,234.4 18.6,234.7 19.9,230.1 20.6,230.3 					"/>
					<polygon class="st7" points="23.5,229.2 21.8,230.7 22.5,230.9 21.2,235.4 22.1,235.7 23.4,231.2 24.1,231.4 					"/>
				</g>
				<path class="st7" d="M15.8,230.3c-0.4,1-1.4,1.5-2.4,1.2l0,0l0,0c-1-0.3-1.6-1.3-1.4-2.3l0.8-3.5l4.2,1.2L15.8,230.3z"/>
				
					<rect x="11.3" y="232.5" transform="matrix(0.2831 -0.9591 0.9591 0.2831 -213.9158 179.352)" class="st7" width="3.5" height="0.5"/>
				<path class="st7" d="M13.8,234.9l-1.1-0.8l-1.4,0.1c-0.2,0-0.3,0.1-0.4,0.3l0,0l3,0.9l0,0C14,235.2,13.9,235,13.8,234.9z"/>
				<path class="st7" d="M29.5,230.1c-1.7-0.5-3.5,0.5-4,2.2l6.2,1.8C32.2,232.4,31.2,230.6,29.5,230.1z"/>
				<g>
					<path class="st7" d="M26.1,238.5c-0.4-0.1-0.7-0.4-0.8-0.8l-0.1-0.5c0-0.1,0.1-0.3,0.2-0.3c0.1,0,0.3,0.1,0.3,0.2l0.1,0.5
						c0,0.2,0.2,0.4,0.4,0.4c0.3,0.1,0.6-0.1,0.7-0.4l1.5-5.1c0-0.1,0.2-0.2,0.3-0.2c0.1,0,0.2,0.2,0.2,0.3l-1.5,5.1
						C27.4,238.4,26.7,238.7,26.1,238.5z"/>
				</g>
			</g>
			<path class="st17" d="M55.2,201.2c-2.3,0.9-4,0.4-4.1-1.1c-0.1-2.1-2.4-0.6-3.3-1.8l4.6-15.6l7.6,2.2L55.2,201.2z"/>
		</g>
		<g>
			<polygon class="st12" points="118.9,218 107.4,231.4 105.3,234 94.3,246.8 94,247.1 88.4,242.4 82.4,237.3 85,234.1 93.2,224.1 
				106.5,207.9 106.7,208 			"/>
			<g>
				<path class="st12" d="M54.7,241.6l-7.7,0l-2.7-0.7c-1.3-0.4-2.3-1.6-2.3-3l0-0.3c0-0.4,0.4-0.7,0.8-0.6l2.9,1l3.1,0
					c1.5,0,3,0.6,4,1.7L54.7,241.6z"/>
				<path class="st12" d="M46.5,248.4l-7.9,0c-1.3,0-2.3-1-2.3-2.3l0-1.1l10.2,0L46.5,248.4z"/>
				<path class="st12" d="M43.7,250.8l-2.2,0c-1.1,0-2-0.9-2-2l0-0.4l4.1,0L43.7,250.8z"/>
				<path class="st12" d="M45.8,253.2l-2.2,0c-1.1,0-2-0.9-2-2l0-0.4l4.1,0L45.8,253.2z"/>
				<path class="st12" d="M56.9,248.3c-0.2,0.9-0.8,1.8-1.6,2.3l-6.2,3.8c-0.9,0.5-1.9,0.8-2.9,0.9l-0.2,0c-1,0-1.8-0.8-1.8-1.8
					v-0.3h1.3l-0.2-0.2l-2.4-2.2l0,0l-2.5-2.4l-0.8-0.7l3.2-2.6l4.2-3.5h7.7l2,4.6c0,0,0,0.1,0.1,0.2C57,247,57.1,247.7,56.9,248.3z
					"/>
			</g>
			<path class="st12" d="M94.3,246.8L94.3,246.8c0,0.9-0.7,1.5-1.5,1.5l-35.8,0l0,0l-1.2-1.9v0l-2.9-4.8l-0.3-0.6l1.3-0.4l26.4-7.3
				l4.8,0.7l9.3,1.4v1.4L94.3,246.8z"/>
			<path class="st11" d="M109.1,232.3l-2.3,2.9l-1.4-1.2l-11,12.9c0,0.8-0.7,1.5-1.5,1.5l-35.8,0l0,0c-0.2,0.9-0.8,1.8-1.6,2.3
				l-6.2,3.8c-0.9,0.5-1.9,0.8-2.9,0.9c0,0,10.3-5.7,9.6-8.9v0c0.1,0,0.5,0,1,0c5.5-0.1,30.8-1,31.6-4c0,0,0,0,0-0.1
				c0.6-2.5-0.1-3.6-0.4-4c0.6,0.5,2.1,1.8,3,1.6c0.3,0,1.7-1.4,3.3-3.1c2.1-2.3,4.6-5.2,6.1-7c0.8-0.9,1.3-1.5,1.3-1.5l5.8,3
				L109.1,232.3z"/>
			<path class="st10" d="M121.2,217.4l-12.2,14.9l-2.3,2.9l-1.4-1.2l-4.9-4l-6.9-5.7l-0.2-0.2l-2.2-1.8l14.5-17.7
				c3.5-4.3,9.9-4.9,14.2-1.4l0.2,0.1c1.1,0.9,1.9,1.9,2.5,3.1c0.1,0.2,0.2,0.3,0.2,0.5C124.1,210.3,123.7,214.4,121.2,217.4z"/>
			<path class="st15" d="M107.3,207.2c3.5-4.3,9.9-4.9,14.2-1.4l0.2,0.1c0.4,0.3,0.7,0.6,1,0.9c-0.6-1.4-1.5-2.6-2.8-3.6l-0.2-0.1
				c-4.3-3.5-10.6-2.9-14.2,1.4L91,222.3l2.4,2L107.3,207.2z"/>
		</g>
		<path class="st14" d="M105.7,197.7l1.6-2.2c1.5,1.4,2.3,2.8,2.4,4.4l13.9-4.3l-0.4-3.8l-16.5,2.3L105.7,197.7z"/>
	</g>
</g>
</svg>
