<?xml version="1.0" encoding="utf-8"?>
<!-- Generator: Adobe Illustrator 25.2.0, SVG Export Plug-In . SVG Version: 6.00 Build 0)  -->
<svg version="1.1" id="Capa_1" xmlns="http://www.w3.org/2000/svg" xmlns:xlink="http://www.w3.org/1999/xlink" x="0px" y="0px"
	 viewBox="0 0 440 400" style="enable-background:new 0 0 440 400;" xml:space="preserve">
<style type="text/css">
	.st0{fill:#FFFFFF;}
	.st1{fill:#FFFFFF;stroke:#263238;stroke-linecap:round;stroke-linejoin:round;}
	.st2{fill:#EBBA77;}
	.st3{fill:#9E7034;}
	.st4{fill:#E6E6E6;}
	.st5{fill:#F0C68E;}
	.st6{fill:#C79D6F;}
	.st7{fill:#4D4D4D;}
	.st8{fill:#A6835D;}
	.st9{fill:#316D8C;}
	.st10{fill-rule:evenodd;clip-rule:evenodd;fill:#FFFFFF;}
	.st11{fill:#3B81A6;}
	.st12{fill:#B3B3B3;}
	.st13{fill:#D6C489;}
	.st14{fill:#D15F61;}
	.st15{fill:#DDEBF5;}
	.st16{fill-rule:evenodd;clip-rule:evenodd;fill:#FFBC85;}
	.st17{fill:#8A531D;}
	.st18{fill:#7A4410;}
	.st19{fill-rule:evenodd;clip-rule:evenodd;fill:#F5A167;}
	.st20{fill:#CCCCCC;}
</style>
<path class="st0" d="M-30-45"/>
<path class="st0" d="M-30-45"/>
<g>
	<path class="st1" d="M-30-45"/>
	<path class="st1" d="M-30-45"/>
	<path class="st1" d="M-30-45"/>
</g>
<g>
	<g>
		<rect x="7.1" y="226.6" class="st2" width="91.3" height="91.3"/>
		<g>
			<rect x="17.2" y="226.6" class="st3" width="1.2" height="91.3"/>
			<rect x="28.9" y="226.6" class="st3" width="1.2" height="91.3"/>
			<rect x="40.5" y="226.6" class="st3" width="1.2" height="91.3"/>
			<rect x="52.1" y="226.6" class="st3" width="1.2" height="91.3"/>
			<rect x="63.8" y="226.6" class="st3" width="1.2" height="91.3"/>
			<rect x="75.4" y="226.6" class="st3" width="1.2" height="91.3"/>
			<rect x="87.1" y="226.6" class="st3" width="1.2" height="91.3"/>
		</g>
		<g>
			<g>
				<polygon class="st4" points="13.1,230 8.4,234.8 88.5,314.9 93.3,310.2 13.1,230 				"/>
			</g>
		</g>
		<g>
			<g>
				
					<rect x="49.4" y="212.3" transform="matrix(0.7071 -0.7072 0.7072 0.7071 -177.0412 117.0396)" class="st5" width="6.7" height="119.9"/>
			</g>
		</g>
		<g>
			<g>
				<polygon class="st4" points="88.5,234.7 13.1,310.1 17.8,314.9 93.2,239.5 88.5,234.7 				"/>
			</g>
		</g>
		<g>
			<g>
				
					<rect x="-6.1" y="268.8" transform="matrix(0.7071 -0.7071 0.7071 0.7071 -177.0309 117.0242)" class="st5" width="117.7" height="6.7"/>
			</g>
		</g>
		<path class="st5" d="M90.2,234.7v75h-75v-75H90.2L90.2,234.7z M98.4,226.6H7.1v91.3h91.3V226.6L98.4,226.6z"/>
	</g>
	<polygon class="st4" points="98.4,231.4 12,317.8 98.4,317.8 	"/>
</g>
<g>
	<rect x="338.4" y="45" class="st6" width="66.6" height="96.5"/>
	<g>
		<rect x="363.9" y="127.9" class="st7" width="12.2" height="2.2"/>
		<g>
			<polygon class="st7" points="366.3,113.4 363.9,117.4 365.3,117.4 365.3,127 367.3,127 367.3,117.4 368.7,117.4 			"/>
			<polygon class="st7" points="373.7,113.4 371.3,117.4 372.7,117.4 372.7,127 374.7,127 374.7,117.4 376.1,117.4 			"/>
		</g>
		<path class="st7" d="M359.4,120.1c-0.1,2.1-1.9,3.8-4,3.8h0h0c-2.1,0-3.9-1.7-4-3.8l-0.4-7.3h8.9L359.4,120.1z"/>
		<rect x="354.7" y="123" class="st7" width="1.1" height="7.1"/>
		<path class="st7" d="M358,130.3l-2.7-0.9l-2.6,0.9c-0.3,0.1-0.6,0.4-0.6,0.8v0h6.4v0C358.6,130.7,358.4,130.4,358,130.3z"/>
		<path class="st7" d="M386,111.8c-3.6,0-6.6,2.9-6.6,6.6h13.1C392.6,114.7,389.6,111.8,386,111.8z"/>
		<g>
			<path class="st7" d="M384.3,130.2c-0.8,0-1.6-0.4-2-1.1l-0.5-0.9c-0.2-0.3-0.1-0.6,0.2-0.8c0.3-0.2,0.6-0.1,0.8,0.2l0.5,0.9
				c0.2,0.4,0.6,0.6,1,0.6c0.7,0,1.2-0.5,1.2-1.2v-10.8c0-0.3,0.3-0.6,0.6-0.6c0.3,0,0.6,0.3,0.6,0.6v10.8
				C386.6,129.2,385.5,130.2,384.3,130.2z"/>
		</g>
	</g>
	<path class="st8" d="M379.8,79.7c0,0.1,0,0.1,0.1,0.1c-0.9-0.4-1.9,0.7-2.8,0.3c-0.5-0.2-0.6-0.7-1-1.1c-0.7-0.7-2.1-0.7-2.6,0.2
		c-0.2,0.3-0.3,0.7-0.5,1c-0.2,0.3-0.5,0.6-0.9,0.6c-0.5,0-0.8-0.6-1-1c-0.3-0.6-0.5-1.2-0.9-1.7c-0.4-0.5-1-0.9-1.7-0.9
		c-0.8,0-1.5,0.6-2.2,1c-1,0.6-1.6,0.4-2.5-0.2c0-0.2,0-0.5,0-0.8c0-3.5,0-7.1,0-10.6c0-4.8,0-9.7,0-14.5c0-2.4,0-4.9,0-7.3
		c0,0,16.2,0,16.2,0c0,2.9,0,5.7,0,8.6c0,5.2,0,10.4,0,15.6c0,2.2,0,4.4,0,6.5C379.8,76,379.6,79,379.8,79.7z"/>
</g>
<g>
	<circle class="st9" cx="69.3" cy="76.5" r="39.6"/>
	<circle class="st10" cx="69.3" cy="76.5" r="33.3"/>
	<circle class="st9" cx="69.3" cy="76.5" r="3.6"/>
	<path class="st9" d="M84.6,89.9c-0.4,0-0.8-0.1-1.1-0.4L67.4,77.4V46.8c0-1,0.8-1.8,1.8-1.8c1,0,1.8,0.8,1.8,1.8v28.8l14.7,11.1
		c0.8,0.6,1,1.7,0.4,2.6C85.7,89.6,85.2,89.9,84.6,89.9z"/>
</g>
<g>
	<path class="st0" d="M426.4,379.5h-69.9c-2.6,0-4.7-2.1-4.7-4.7v-55.1h79.3v55.1C431.1,377.4,429,379.5,426.4,379.5z"/>
	<path class="st11" d="M424.2,309.7h-65.5c-3.8,0-6.9,3.1-6.9,6.9v3.1h79.3v-3.1C431.1,312.8,428,309.7,424.2,309.7z"/>
	<g>
		<path class="st12" d="M361.1,316.1c0,1-0.8,1.8-1.8,1.8c-1,0-1.8-0.8-1.8-1.8c0-1,0.8-1.8,1.8-1.8
			C360.3,314.3,361.1,315.1,361.1,316.1z"/>
		<path class="st4" d="M361.1,323.4c0,1-0.8,1.8-1.8,1.8c-1,0-1.8-0.8-1.8-1.8c0-1,0.8-1.8,1.8-1.8
			C360.3,321.6,361.1,322.4,361.1,323.4z"/>
		<path class="st13" d="M359.3,324.3L359.3,324.3c-0.6,0-1-0.5-1-1v-7.3c0-0.6,0.5-1,1-1h0c0.6,0,1,0.5,1,1v7.3
			C360.3,323.9,359.9,324.3,359.3,324.3z"/>
	</g>
	<g>
		<path class="st12" d="M368.3,316.1c0,1-0.8,1.8-1.8,1.8c-1,0-1.8-0.8-1.8-1.8c0-1,0.8-1.8,1.8-1.8
			C367.4,314.3,368.3,315.1,368.3,316.1z"/>
		<path class="st4" d="M368.3,323.4c0,1-0.8,1.8-1.8,1.8c-1,0-1.8-0.8-1.8-1.8c0-1,0.8-1.8,1.8-1.8
			C367.4,321.6,368.3,322.4,368.3,323.4z"/>
		<path class="st13" d="M366.4,324.3L366.4,324.3c-0.6,0-1-0.5-1-1v-7.3c0-0.6,0.5-1,1-1h0c0.6,0,1,0.5,1,1v7.3
			C367.5,323.9,367,324.3,366.4,324.3z"/>
	</g>
	<g>
		<path class="st12" d="M375.4,316.1c0,1-0.8,1.8-1.8,1.8c-1,0-1.8-0.8-1.8-1.8c0-1,0.8-1.8,1.8-1.8
			C374.6,314.3,375.4,315.1,375.4,316.1z"/>
		<path class="st4" d="M375.4,323.4c0,1-0.8,1.8-1.8,1.8c-1,0-1.8-0.8-1.8-1.8c0-1,0.8-1.8,1.8-1.8
			C374.6,321.6,375.4,322.4,375.4,323.4z"/>
		<path class="st13" d="M373.6,324.3L373.6,324.3c-0.6,0-1-0.5-1-1v-7.3c0-0.6,0.5-1,1-1h0c0.6,0,1,0.5,1,1v7.3
			C374.6,323.9,374.1,324.3,373.6,324.3z"/>
	</g>
	<g>
		<path class="st12" d="M382.6,316.1c0,1-0.8,1.8-1.8,1.8c-1,0-1.8-0.8-1.8-1.8c0-1,0.8-1.8,1.8-1.8
			C381.7,314.3,382.6,315.1,382.6,316.1z"/>
		<path class="st4" d="M382.6,323.4c0,1-0.8,1.8-1.8,1.8c-1,0-1.8-0.8-1.8-1.8c0-1,0.8-1.8,1.8-1.8
			C381.7,321.6,382.6,322.4,382.6,323.4z"/>
		<path class="st13" d="M380.7,324.3L380.7,324.3c-0.6,0-1-0.5-1-1v-7.3c0-0.6,0.5-1,1-1h0c0.6,0,1,0.5,1,1v7.3
			C381.7,323.9,381.3,324.3,380.7,324.3z"/>
	</g>
	<g>
		<path class="st12" d="M389.7,316.1c0,1-0.8,1.8-1.8,1.8c-1,0-1.8-0.8-1.8-1.8c0-1,0.8-1.8,1.8-1.8
			C388.9,314.3,389.7,315.1,389.7,316.1z"/>
		<path class="st4" d="M389.7,323.4c0,1-0.8,1.8-1.8,1.8c-1,0-1.8-0.8-1.8-1.8c0-1,0.8-1.8,1.8-1.8
			C388.9,321.6,389.7,322.4,389.7,323.4z"/>
		<path class="st13" d="M387.9,324.3L387.9,324.3c-0.6,0-1-0.5-1-1v-7.3c0-0.6,0.5-1,1-1h0c0.6,0,1,0.5,1,1v7.3
			C388.9,323.9,388.4,324.3,387.9,324.3z"/>
	</g>
	<g>
		<path class="st12" d="M396.8,316.1c0,1-0.8,1.8-1.8,1.8s-1.8-0.8-1.8-1.8c0-1,0.8-1.8,1.8-1.8S396.8,315.1,396.8,316.1z"/>
		<path class="st4" d="M396.8,323.4c0,1-0.8,1.8-1.8,1.8s-1.8-0.8-1.8-1.8c0-1,0.8-1.8,1.8-1.8S396.8,322.4,396.8,323.4z"/>
		<path class="st13" d="M395,324.3L395,324.3c-0.6,0-1-0.5-1-1v-7.3c0-0.6,0.5-1,1-1h0c0.6,0,1,0.5,1,1v7.3
			C396,323.9,395.6,324.3,395,324.3z"/>
	</g>
	<g>
		<path class="st12" d="M404,316.1c0,1-0.8,1.8-1.8,1.8c-1,0-1.8-0.8-1.8-1.8c0-1,0.8-1.8,1.8-1.8C403.2,314.3,404,315.1,404,316.1z
			"/>
		<path class="st4" d="M404,323.4c0,1-0.8,1.8-1.8,1.8c-1,0-1.8-0.8-1.8-1.8c0-1,0.8-1.8,1.8-1.8C403.2,321.6,404,322.4,404,323.4z"
			/>
		<path class="st13" d="M402.2,324.3L402.2,324.3c-0.6,0-1-0.5-1-1v-7.3c0-0.6,0.5-1,1-1h0c0.6,0,1,0.5,1,1v7.3
			C403.2,323.9,402.7,324.3,402.2,324.3z"/>
	</g>
	<g>
		<path class="st12" d="M411.1,316.1c0,1-0.8,1.8-1.8,1.8c-1,0-1.8-0.8-1.8-1.8c0-1,0.8-1.8,1.8-1.8
			C410.3,314.3,411.1,315.1,411.1,316.1z"/>
		<path class="st4" d="M411.1,323.4c0,1-0.8,1.8-1.8,1.8c-1,0-1.8-0.8-1.8-1.8c0-1,0.8-1.8,1.8-1.8
			C410.3,321.6,411.1,322.4,411.1,323.4z"/>
		<path class="st13" d="M409.3,324.3L409.3,324.3c-0.6,0-1-0.5-1-1v-7.3c0-0.6,0.5-1,1-1h0c0.6,0,1,0.5,1,1v7.3
			C410.3,323.9,409.9,324.3,409.3,324.3z"/>
	</g>
	<g>
		<path class="st12" d="M418.3,316.1c0,1-0.8,1.8-1.8,1.8c-1,0-1.8-0.8-1.8-1.8c0-1,0.8-1.8,1.8-1.8
			C417.5,314.3,418.3,315.1,418.3,316.1z"/>
		<path class="st4" d="M418.3,323.4c0,1-0.8,1.8-1.8,1.8c-1,0-1.8-0.8-1.8-1.8c0-1,0.8-1.8,1.8-1.8
			C417.5,321.6,418.3,322.4,418.3,323.4z"/>
		<path class="st13" d="M416.5,324.3L416.5,324.3c-0.6,0-1-0.5-1-1v-7.3c0-0.6,0.5-1,1-1h0c0.6,0,1,0.5,1,1v7.3
			C417.5,323.9,417,324.3,416.5,324.3z"/>
	</g>
	<g>
		<path class="st12" d="M425.4,316.1c0,1-0.8,1.8-1.8,1.8c-1,0-1.8-0.8-1.8-1.8c0-1,0.8-1.8,1.8-1.8
			C424.6,314.3,425.4,315.1,425.4,316.1z"/>
		<path class="st4" d="M425.4,323.4c0,1-0.8,1.8-1.8,1.8c-1,0-1.8-0.8-1.8-1.8c0-1,0.8-1.8,1.8-1.8
			C424.6,321.6,425.4,322.4,425.4,323.4z"/>
		<path class="st13" d="M423.6,324.3L423.6,324.3c-0.6,0-1-0.5-1-1v-7.3c0-0.6,0.5-1,1-1h0c0.6,0,1,0.5,1,1v7.3
			C424.6,323.9,424.2,324.3,423.6,324.3z"/>
	</g>
	<g>
		<rect x="358.5" y="328.3" class="st14" width="7.1" height="7.1"/>
		<rect x="368.3" y="328.3" class="st11" width="7.1" height="7.1"/>
		<rect x="378.1" y="328.3" class="st11" width="7.1" height="7.1"/>
		<rect x="387.9" y="328.3" class="st11" width="7.1" height="7.1"/>
		<rect x="397.7" y="328.3" class="st11" width="7.1" height="7.1"/>
		<rect x="407.6" y="328.3" class="st11" width="7.1" height="7.1"/>
		<rect x="417.4" y="328.3" class="st11" width="7.1" height="7.1"/>
	</g>
	<g>
		<rect x="358.5" y="338" class="st14" width="7.1" height="7.1"/>
		<rect x="368.3" y="338" class="st11" width="7.1" height="7.1"/>
		<rect x="378.1" y="338" class="st11" width="7.1" height="7.1"/>
		<rect x="387.9" y="338" class="st11" width="7.1" height="7.1"/>
		<rect x="397.7" y="338" class="st11" width="7.1" height="7.1"/>
		<rect x="407.6" y="338" class="st11" width="7.1" height="7.1"/>
		<rect x="417.4" y="338" class="st11" width="7.1" height="7.1"/>
	</g>
	<g>
		<rect x="358.5" y="347.6" class="st14" width="7.1" height="7.1"/>
		<rect x="368.3" y="347.6" class="st11" width="7.1" height="7.1"/>
		<rect x="378.1" y="347.6" class="st11" width="7.1" height="7.1"/>
		<rect x="387.9" y="347.6" class="st11" width="7.1" height="7.1"/>
		<rect x="397.7" y="347.6" class="st11" width="7.1" height="7.1"/>
		<rect x="407.6" y="347.6" class="st11" width="7.1" height="7.1"/>
		<rect x="417.4" y="347.6" class="st11" width="7.1" height="7.1"/>
	</g>
	<g>
		<rect x="358.5" y="357.3" class="st14" width="7.1" height="7.1"/>
		<rect x="368.3" y="357.3" class="st11" width="7.1" height="7.1"/>
		<rect x="378.1" y="357.3" class="st11" width="7.1" height="7.1"/>
		<rect x="387.9" y="357.3" class="st11" width="7.1" height="7.1"/>
		<rect x="397.7" y="357.3" class="st11" width="7.1" height="7.1"/>
		<rect x="407.6" y="357.3" class="st11" width="7.1" height="7.1"/>
		<rect x="417.4" y="357.3" class="st11" width="7.1" height="7.1"/>
	</g>
	<g>
		<rect x="358.5" y="367" class="st14" width="7.1" height="7.1"/>
		<rect x="368.3" y="367" class="st11" width="7.1" height="7.1"/>
		<rect x="378.1" y="367" class="st11" width="7.1" height="7.1"/>
	</g>
</g>
<g>
	<path class="st15" d="M352.9,400H144.3H88.1l7.6-119.5c1-16.5,11.4-31,26.7-37.3l99.5-41.1l97.1,41c15.1,6.4,25.3,20.8,26.4,37.1
		L352.9,400z"/>
	<g>
		<path class="st16" d="M157.1,104.1c0-0.2,0-0.3,0-0.4c-4.8,0.8-8.5,5-8.5,10.1v3.5c0,8.6,5.6,16,13.7,18.6
			C159.1,125.8,157.1,115.1,157.1,104.1z"/>
		<path class="st16" d="M286.4,104.1c0-0.2,0-0.3,0-0.4c4.8,0.8,8.5,5,8.5,10.1v3.5c0,8.6-5.6,16-13.7,18.6
			C284.5,125.8,286.4,115.1,286.4,104.1z"/>
		<path class="st17" d="M265.2,51.4c0,24-21.7,99.7-45.7,99.7c-24,0-41.3-75.7-41.3-99.7c0-24,19.5-43.5,43.5-43.5
			C245.8,7.9,265.2,27.3,265.2,51.4z"/>
		<path class="st18" d="M260.8,61.7c0,21.5-19.4,89.4-40.9,89.4c-21.5,0-37-67.9-37-89.4c0-21.5,17.4-39,39-39
			S260.8,40.1,260.8,61.7z"/>
		<path class="st11" d="M241.8,43.9c0.1,8.2-8.8,14.9-19.9,15c-11.1,0.1-20.1-6.4-20.2-14.6c-0.1-8.2,8.8-14.9,19.9-15
			C232.7,29.2,241.7,35.7,241.8,43.9z"/>
		<polygon class="st16" points="250.6,235.4 221.8,266.2 193,235.4 193,157.8 250.6,157.8 		"/>
		<path class="st19" d="M193,197.4v-39.6h57.6v39.6c0,0-13.5,12.4-28.8,12.3C206.6,209.8,193,197.4,193,197.4z"/>
		<path class="st16" d="M286.4,104.1c0,1.5,0,3-0.1,4.5c-2.4,48.5-35.7,92.7-64.5,92.7c-27,0-59.5-40.4-64.1-87.9
			c-0.3-3.1-0.5-6.2-0.5-9.3c0-26.1,15.5-48.6,37.8-58.8c4.6-2.1,9.6-3.7,14.8-4.7c3.9-0.7,7.9-1.1,12-1.1
			C257.5,39.5,286.4,68.4,286.4,104.1z"/>
		<path class="st17" d="M289.3,105.3c0,1.6-0.4,8.2-0.5,9.7c-38.3,0-75.9-19.9-88.8-33.9c-8.2-8.9-6.1-24.2-6.2-37.3
			c4.8-2.2,10-3.9,15.4-4.9c4.1-0.8,8.3-1.2,12.6-1.2C259.1,37.8,289.3,68.1,289.3,105.3z"/>
		<path class="st17" d="M211.5,54.9c0,7.6-1.6,15-4.5,21.8c-8.5,19.6-28.2,34.4-52.2,38.4c-0.3-3.2-0.5-6.5-0.5-9.7
			c0-27.3,16.2-50.8,39.5-61.4c4.8-2.2,10-3.9,15.4-4.9C210.7,44.1,211.5,49.4,211.5,54.9z"/>
		<path class="st19" d="M234.5,161.1h-25.3v0.6c0,2.8,2.2,5,5,5h15.3c2.8,0,5-2.2,5-5V161.1z"/>
		<path class="st20" d="M287.8,144.7l0.1-0.1c7.2-6.3,12.2-14.8,14.1-24.2l0.3-1.7c0.7-3.6-1.6-7.2-5.3-7.9l-2.4-0.5L287.8,144.7z"
			/>
		<path class="st7" d="M286.3,146.2l-1.7-0.3c-3.1-0.6-5.1-3.6-4.5-6.7l7.1-35.2c0.4-1.8,2.1-3,3.9-2.6l0.1,0
			c1.3,0.3,2.4,1.3,2.6,2.6c0.6,2.9,1.3,8,0.4,12.5l-5.7,28.2C288.4,145.7,287.4,146.4,286.3,146.2z"/>
		<path class="st20" d="M155.7,144.7l-0.1-0.1c-7.2-6.3-12.2-14.8-14.1-24.2l-0.3-1.7c-0.7-3.6,1.6-7.2,5.3-7.9l2.4-0.5L155.7,144.7
			z"/>
		<path class="st7" d="M157.3,146.2l1.7-0.3c3.1-0.6,5.1-3.6,4.5-6.7l-7.1-35.2c-0.4-1.8-2.1-3-3.9-2.6l-0.1,0
			c-1.3,0.3-2.4,1.3-2.6,2.6c-0.6,2.9-1.3,8-0.4,12.5l5.7,28.2C155.2,145.7,156.2,146.4,157.3,146.2z"/>
		<g>
			<path class="st20" d="M295,133.6h-2.6v-18.2c0-42.2-31.7-76.5-70.7-76.5c-39,0-70.7,34.3-70.7,76.5v18.2h-2.6v-18.2
				c0-43.6,32.9-79.1,73.3-79.1c40.4,0,73.3,35.5,73.3,79.1V133.6z"/>
		</g>
		<g>
			<path class="st20" d="M251,179.1l-0.4-2.2c15.3-2.6,44.1-23.7,47.7-51.8l2.2,0.3C297.1,152.3,270.2,175.7,251,179.1z"/>
		</g>
		<path class="st7" d="M253.9,181.4l-13,4.2c-2.8,0.9-5.8-0.8-6.4-3.8l0-0.1c-0.6-2.9,1.5-5.7,4.5-6l13.6-1.2L253.9,181.4z"/>
	</g>
	<polygon class="st4" points="250.7,209.9 222.5,265.7 238.9,260.7 262,272.2 259,218.3 	"/>
	<polygon class="st4" points="192.9,209.9 221.8,266.2 204.7,260.7 180.9,272.2 184.6,218.3 	"/>
	<polygon class="st15" points="250.7,207.4 221.8,266.4 238.9,250.5 260.8,269.6 259,215.7 	"/>
	<polygon class="st15" points="192.9,207.4 221.8,266.4 204.7,250.5 182.8,269.6 184.6,215.7 	"/>
	<path class="st4" d="M224.7,279.2c0,1.6-1.3,2.9-2.9,2.9c-1.6,0-2.9-1.3-2.9-2.9c0-1.6,1.3-2.9,2.9-2.9
		C223.4,276.3,224.7,277.6,224.7,279.2z"/>
	<path class="st4" d="M224.7,316c0,1.6-1.3,2.9-2.9,2.9c-1.6,0-2.9-1.3-2.9-2.9c0-1.6,1.3-2.9,2.9-2.9
		C223.4,313.1,224.7,314.4,224.7,316z"/>
	<path class="st4" d="M224.7,352.8c0,1.6-1.3,2.9-2.9,2.9c-1.6,0-2.9-1.3-2.9-2.9c0-1.6,1.3-2.9,2.9-2.9
		C223.4,349.8,224.7,351.2,224.7,352.8z"/>
	<path class="st4" d="M143,331.3c5.4,35.6,11.9,65.6,23.6,68.7H143V331.3z"/>
	<path class="st4" d="M300.5,331.3c-5.4,35.6-11.9,65.6-23.6,68.7h23.6V331.3z"/>
</g>
</svg>
